<svg xmlns="http://www.w3.org/2000/svg" width="14.356" height="8.614" viewBox="0 0 14.356 8.614"><defs><style>.a{fill:#ff5d5d;}</style></defs><path class="a" d="M3.948,8.807A1.794,1.794,0,1,0,2.153,7.012,1.8,1.8,0,0,0,3.948,8.807Zm7.9-2.871H6.819a.359.359,0,0,0-.359.359v3.23H1.436V4.859A.359.359,0,0,0,1.077,4.5H.359A.359.359,0,0,0,0,4.859v7.9a.359.359,0,0,0,.359.359h.718a.359.359,0,0,0,.359-.359V11.678H12.92v1.077a.359.359,0,0,0,.359.359H14a.359.359,0,0,0,.359-.359V8.448A2.512,2.512,0,0,0,11.844,5.936Z" transform="translate(0 -4.5)"/></svg>